# xmcd
#
# Track frame offsets:
#	150
#	17235
#	31270
#	48665
#	58750
#	75552
#	88572
#	104757
#	113830
#	134367
#	151452
#	168647
#	185340
#	204635
#	222730
#	236652
#	252050
#
# Disc length: 3688
#
# Revision: 1
# Processed by: cddbd v1.5.1PL0 Copyright (c) Steve Scherf et al.
# Submitted via: CDex 1.51
# Normalized: r0:DSETVAR1,TDELIM( - )
#
DISCID=f40e6611
DTITLE=Various Artist - Guitar Pop Jamboree - Starting (Here)
DYEAR=1999
DGENRE=Pop
TTITLE0=Primal Scream - Gentle Tuesday
TTITLE1=The Weather Prophets - Can't Keep My Mind Off You
TTITLE2=Edwyn Collins - Don't Shilly Shally
TTITLE3=The Soup Dragons - Hang Ten!
TTITLE4=The Vaselines - Son Of A Gun
TTITLE5=They Might Be Giants - Why Does The Sun Shine?
TTITLE6=Monochrome Set, The - Wallflower
TTITLE7=Ween - What Deaner Was Talkin' About
TTITLE8=Scud Mountain Set - Television
TTITLE9=The Dream Academy - The Love Parade
TTITLE10=Sebadoh - Too Pure
TTITLE11=Ride - Twisterella
TTITLE12=Guadaleanal Diary - 3AM
TTITLE13=The Jesus and Mary Chain - April Skies
TTITLE14=Beat Happening - Indian Summer
TTITLE15=Aztec Camera - Walk Out To Winter
TTITLE16=Eugenius - Easter Bunny
EXTD=YEAR: 1999
EXTT0=
EXTT1=
EXTT2=
EXTT3=
EXTT4=
EXTT5=
EXTT6=
EXTT7=
EXTT8=
EXTT9=
EXTT10=
EXTT11=
EXTT12=
EXTT13=
EXTT14=
EXTT15=
EXTT16=
PLAYORDER=
